<svg id="Capa_1" data-name="Capa 1" xmlns="http://www.w3.org/2000/svg" viewBox="0 0 1024 1468"><defs><style>.cls-1,.cls-16,.cls-17{fill:none;stroke:#757575;stroke-miterlimit:10;}.cls-1{stroke-width:2px;}.cls-2{fill:#3a3a3a;}.cls-3{font-size:40px;font-family:AvenirNext-Bold, Avenir Next;font-weight:700;}.cls-10,.cls-15,.cls-3{fill:#fff;}.cls-4{letter-spacing:-0.02em;}.cls-5{letter-spacing:-0.06em;}.cls-6{letter-spacing:-0.02em;}.cls-7{letter-spacing:-0.01em;}.cls-8{letter-spacing:0em;}.cls-9{fill:#29aa9b;}.cls-10{font-size:25px;font-family:Cocogoose;}.cls-11{letter-spacing:-0.04em;}.cls-12{fill:#e2e2e2;}.cls-13,.cls-20{font-size:18px;font-family:Avenir-Medium, Avenir;font-weight:500;}.cls-14{fill:#375591;}.cls-15{font-size:12px;font-family:Avenir-Book, Avenir;}.cls-16{stroke-width:2.1px;}.cls-17{stroke-width:2.14px;}.cls-18{letter-spacing:0.04em;}.cls-19{letter-spacing:0.02em;}.cls-20{letter-spacing:-0.02em;}</style></defs><title>esquema</title><path class="cls-1" d="M396,1072H367v-53"/><path class="cls-1" d="M396,1126H367v-53"/><rect class="cls-2" x="238" y="53" width="548" height="71"/><text class="cls-3" transform="translate(375 105.1)"><tspan xml:space="preserve"> HORI</tspan><tspan class="cls-4" x="113.84" y="0">Z</tspan><tspan x="138.28" y="0">ON</tspan><tspan class="cls-5" x="203.92" y="0">T</tspan><tspan x="224.76" y="0">A</tspan><tspan class="cls-6" x="253.92" y="0">L</tspan></text><rect class="cls-2" x="238" y="822" width="548" height="71"/><text class="cls-3" transform="translate(416.92 874.1)">VE<tspan class="cls-7" x="51.56" y="0">R</tspan><tspan class="cls-8" x="77.6" y="0">TI</tspan><tspan class="cls-7" x="113.56" y="0">C</tspan><tspan x="140.92" y="0">A</tspan><tspan class="cls-4" x="170.08" y="0">L</tspan></text><rect class="cls-9" x="77" y="915" width="237" height="77"/><text class="cls-10" transform="translate(113.4 948.46)">CONFIANZA<tspan x="-26.39" y="30">INST. &amp; DEMO</tspan><tspan class="cls-11" x="163.34" y="30">C</tspan><tspan x="179.95" y="30">.</tspan></text><rect class="cls-9" x="351.53" y="915" width="320.93" height="77"/><text class="cls-10" transform="translate(401.61 948.46)">PARTICIPACIÓN<tspan x="42.89" y="30">POLÍTICA</tspan></text><rect class="cls-12" x="353" y="1010" width="319" height="28"/><text class="cls-13" transform="translate(416.14 1029.4)">Participación ciudadana</text><rect class="cls-9" x="715" y="915" width="233.03" height="77"/><text class="cls-10" transform="translate(733.99 948.46)">JUSTICIA DIST.<tspan x="-7.67" y="30">Y MERITOCRAC.</tspan></text><rect class="cls-14" x="384" y="1048" width="288" height="43"/><text class="cls-15" transform="translate(443.45 1068.07)">Ha firmado una carta o petición<tspan x="29.51" y="12">apoyando una causa</tspan></text><rect class="cls-14" x="384" y="1102" width="288" height="43"/><text class="cls-15" transform="translate(428.66 1122.07)">Ha asistido a marcha o manifestación<tspan x="77.57" y="12">paciífica</tspan></text><path class="cls-1" d="M396,1177H367v-53"/><path class="cls-1" d="M396,1307H367v-53"/><path class="cls-1" d="M396,1361H367v-53"/><rect class="cls-12" x="353" y="1245" width="319" height="28"/><text class="cls-13" transform="translate(451.49 1264.4)">Interés político</text><rect class="cls-14" x="384" y="1283" width="288" height="43"/><text class="cls-15" transform="translate(444.01 1303.07)">Habla de política con familiares<tspan x="59.31" y="12">o amigos</tspan></text><rect class="cls-14" x="384" y="1337" width="288" height="43"/><text class="cls-15" transform="translate(431.67 1357.07)">Se informa sobre política en medios<tspan x="50.75" y="12">de comunicación</tspan></text><rect class="cls-14" x="384" y="1153" width="288" height="43"/><text class="cls-15" transform="translate(431.22 1173.07)">Ha usado redes sociales para opinar<tspan x="48.11" y="12">en temas públicos</tspan></text><path class="cls-1" d="M122,1064H93v-40"/><path class="cls-1" d="M122,1102H93v-40"/><rect class="cls-14" x="116.44" y="1049" width="196.56" height="28"/><text class="cls-15" transform="translate(174.44 1067.87)">En el gobierno</text><rect class="cls-14" x="116.44" y="1086" width="196.56" height="28"/><text class="cls-15" transform="translate(150.02 1104.87)">En los partidos políticos</text><path class="cls-1" d="M122,1140H93v-40"/><rect class="cls-14" x="116.44" y="1124" width="196.56" height="28"/><text class="cls-15" transform="translate(173.11 1142.87)">En Carabineros</text><path class="cls-1" d="M122,1181H93v-40"/><path class="cls-1" d="M122,1219H93v-40"/><rect class="cls-14" x="116.44" y="1166" width="196.56" height="28"/><text class="cls-15" transform="translate(169.67 1184.87)">En los sindicatos</text><rect class="cls-14" x="116.44" y="1203" width="196.56" height="28"/><text class="cls-15" transform="translate(161.11 1221.87)">En el Poder Judicial</text><path class="cls-16" d="M396,1221H367v-44"/><rect class="cls-14" x="384" y="1205" width="285.06" height="28"/><text class="cls-15" transform="translate(456.05 1222.87)">Ha participado en huelgas</text><path class="cls-1" d="M756,1072H727v-53"/><path class="cls-1" d="M756,1126H727v-53"/><rect class="cls-12" x="715" y="1010" width="233" height="28"/><text class="cls-13" transform="translate(747.82 1029.4)">Percepción de justicia</text><rect class="cls-14" x="744" y="1048" width="206" height="43"/><text class="cls-15" transform="translate(754.42 1068.07)">“Las personas son recompensadas <tspan x="43.47" y="12">por sus esfuerzos”</tspan></text><rect class="cls-14" x="744" y="1102" width="206" height="43"/><text class="cls-15" transform="translate(754.42 1122.07)">“Las personas son recompensadas <tspan x="40.26" y="12">por su inteligencia”</tspan></text><path class="cls-1" d="M756,1218H727v-53"/><path class="cls-1" d="M756,1272H727v-53"/><rect class="cls-12" x="715" y="1156" width="233" height="28"/><text class="cls-13" transform="translate(771 1175.4)">Surgir en la vida</text><rect class="cls-14" x="744" y="1194" width="204" height="43"/><text class="cls-15" transform="translate(761.53 1214.07)">Importancia de provenir de una <tspan x="38.59" y="12">familia adinerada</tspan></text><rect class="cls-14" x="744" y="1248" width="204" height="43"/><text class="cls-15" transform="translate(781.53 1268.07)">Importancia de tener un<tspan x="-1.22" y="12">buen nivel de educación</tspan></text><path class="cls-1" d="M756,1325H727v-53"/><path class="cls-1" d="M756,1379H727v-53"/><rect class="cls-14" x="744" y="1301" width="204" height="43"/><text class="cls-15" transform="translate(789.87 1321.07)">Importancia de tener<tspan x="31.57" y="12">ambición</tspan></text><rect class="cls-14" x="744" y="1355" width="204" height="43"/><text class="cls-15" transform="translate(783.55 1375.07)">Importancia del trabajo<tspan x="49.9" y="12">duro</tspan></text><path class="cls-17" d="M396,1407H367v-46"/><rect class="cls-14" x="384" y="1391" width="288" height="28"/><text class="cls-15" transform="translate(480.32 1408.87)">Interés en política</text><path class="cls-1" d="M122,1257H93v-40"/><rect class="cls-14" x="116.44" y="1241" width="196.56" height="28"/><text class="cls-15" transform="translate(146.88 1259.87)">En las empresas privadas</text><path class="cls-1" d="M122,1297H93v-40"/><rect class="cls-14" x="116.44" y="1281" width="196.56" height="28"/><text class="cls-15" transform="translate(147.3 1299.87)">En el <tspan class="cls-18" x="30.01" y="0">C</tspan><tspan x="38.94" y="0">ongreso Nacional</tspan></text><path class="cls-1" d="M122,1335H93v-40"/><rect class="cls-14" x="116.44" y="1319" width="196.56" height="28"/><text class="cls-15" transform="translate(127.55 1337.87)">En el Presidente de la República</text><path class="cls-1" d="M765,297H736V257"/><path class="cls-1" d="M765,335H736V295"/><path class="cls-1" d="M552,392H523V358"/><path class="cls-1" d="M342,305H313V271"/><path class="cls-1" d="M551,305H522V271"/><path class="cls-1" d="M125.5,296.5h-29q-.25-18.25-.5-36.5"/><rect class="cls-9" x="75" y="148" width="209" height="77"/><text class="cls-10" transform="translate(124.01 181.46)">SENTIDO<tspan x="-34.16" y="30">PERTENENCIA</tspan></text><rect class="cls-9" x="300" y="148" width="408" height="77"/><text class="cls-10" transform="translate(363.47 181.46)">CALIDAD DE VIDA EN<tspan x="36.53" y="30">EL VECINDARIO</tspan></text><rect class="cls-9" x="726" y="148" width="223" height="77"/><text class="cls-10" transform="translate(793.46 181.46)">REDES<tspan x="-22.16" y="30">SOCIALES</tspan></text><rect class="cls-12" x="83" y="243" width="198" height="28"/><text class="cls-13" transform="translate(104.44 262.4)">Identidad nacional</text><rect class="cls-14" x="114" y="282" width="166" height="28"/><text class="cls-15" transform="translate(128.65 300.87)">“Me identifico con Chile”</text><rect class="cls-12" x="726" y="243" width="221" height="28"/><text class="cls-13" transform="translate(741.8 262.4)">Confianza interpersonal</text><rect class="cls-12" x="300" y="243" width="198" height="28"/><text class="cls-13" transform="translate(329.95 262.4)">Cohesión barrial</text><rect class="cls-12" x="510" y="335" width="198" height="28"/><text class="cls-13" transform="translate(512.62 354.4)">Satisfacción residencial</text><rect class="cls-12" x="509" y="243" width="198" height="28"/><text class="cls-13" transform="translate(532.26 262.4)">Confianza vecinos</text><path class="cls-1" d="M125.5,378.5h-29q-.25-18.25-.5-36.5"/><rect class="cls-12" x="83" y="328" width="198" height="28"/><text class="cls-13" transform="translate(112.62 347.4)">Orgullo nacional</text><rect class="cls-14" x="114" y="364" width="166" height="43"/><rect class="cls-14" x="538" y="281" width="169" height="43"/><text class="cls-15" transform="translate(130.21 382.87)"><tspan xml:space="preserve"> “Me siento orgulloso de</tspan><tspan x="34.78" y="14.4">ser chileno”</tspan></text><text class="cls-15" transform="translate(557.37 301.07)">¿Cuánto confía usted en<tspan x="32.11" y="12">sus vecinos?</tspan></text><rect class="cls-14" x="329" y="281" width="169" height="43"/><text class="cls-15" transform="translate(349.5 301.07)">“Este barrio es per<tspan class="cls-18" x="100.41" y="0">f</tspan><tspan x="104.45" y="0">ecto</tspan><tspan x="40.78" y="12">para mí”</tspan></text><path class="cls-1" d="M342,358H313V305"/><rect class="cls-14" x="329" y="334" width="169" height="43"/><text class="cls-15" transform="translate(347.72 354.07)">“Me siento integrado en<tspan x="34.02" y="12">este barrio”</tspan></text><path class="cls-1" d="M342,411H313V358"/><rect class="cls-14" x="329" y="387" width="169" height="43"/><text class="cls-15" transform="translate(340.16 407.07)">“Me identifico con la gente<tspan x="32.91" y="12">de este barrio”</tspan></text><path class="cls-1" d="M342,464H313V411"/><rect class="cls-14" x="329" y="440" width="169" height="43"/><text class="cls-15" transform="translate(358.19 460.07)">“Este barrio es parte<tspan x="35.31" y="12">de mí.”</tspan></text><path class="cls-1" d="M765,382H736V329"/><rect class="cls-14" x="758" y="358" width="189" height="43"/><text class="cls-15" transform="translate(784.95 376.07)">Mayoría de la gente trata<tspan x="36.89" y="14.4">de ser justa</tspan></text><path class="cls-1" d="M342,556H313V522"/><rect class="cls-12" x="300" y="497" width="198" height="28"/><text class="cls-13" transform="translate(316.82 516.4)">Socialbilidad barrial</text><rect class="cls-14" x="329" y="532" width="169" height="43"/><text class="cls-15" transform="translate(353.28 552.07)">“En este barrio es fácil<tspan x="21.32" y="12">hacer amigos”</tspan></text><path class="cls-1" d="M342,609H313V556"/><rect class="cls-14" x="329" y="585" width="169" height="43"/><text class="cls-15" transform="translate(349.62 605.07)">“En este barrio la gente<tspan x="29.54" y="12">es sociable.”</tspan></text><path class="cls-1" d="M342,662H313V609"/><rect class="cls-14" x="329" y="638" width="169" height="43"/><text class="cls-15" transform="translate(349.62 658.07)">“En este barrio la gente<tspan x="35.11" y="12">es cordial”</tspan></text><path class="cls-1" d="M342,715H313V662"/><rect class="cls-14" x="329" y="691" width="169" height="43"/><text class="cls-15" transform="translate(342.06 711.07)">“En este barrio la gente es <tspan x="31" y="12">colaboradora.”</tspan></text><path class="cls-1" d="M552,552H523V499"/><rect class="cls-14" x="539" y="530" width="169" height="43"/><text class="cls-15" transform="translate(575.71 550.07)">Áreas verdes y de<tspan x="-12.43" y="12">recreación disponibles</tspan></text><path class="cls-1" d="M552,606H523V553"/><rect class="cls-14" x="539" y="582" width="169" height="43"/><text class="cls-15" transform="translate(563.07 602.07)">Proximidad al lugar de<tspan x="11.56" y="12">actividad principal</tspan></text><path class="cls-1" d="M552,659H523V606"/><rect class="cls-14" x="539" y="635" width="169" height="43"/><text class="cls-15" transform="translate(555.61 655.07)">Proximidad a colegios de <tspan x="30.1" y="12">buena calidad</tspan></text><path class="cls-1" d="M552,712H523V659"/><rect class="cls-14" x="539" y="688" width="169" height="43"/><text class="cls-15" transform="translate(563.94 708.07)">Proximidad a áreas de<tspan x="34.78" y="12">comercio</tspan></text><path class="cls-1" d="M552,766H523V713"/><rect class="cls-14" x="539" y="742" width="169" height="43"/><text class="cls-15" transform="translate(554.62 762.07)">Proximidad con familia<tspan class="cls-19" x="121.76" y="0">r</tspan><tspan x="125.99" y="0">es</tspan><tspan x="13.76" y="12">y/o amigos cercanos</tspan></text><rect class="cls-14" x="539" y="369" width="169" height="31"/><text class="cls-15" transform="translate(569.85 389.07)">Seguridad de barrio</text><path class="cls-1" d="M552,426H523V386"/><rect class="cls-14" x="539" y="409" width="169" height="31"/><text class="cls-15" transform="translate(587.94 429.07)">Conectividad</text><path class="cls-1" d="M552,467H523V427"/><rect class="cls-14" x="539" y="450" width="169" height="31"/><text class="cls-15" transform="translate(563.15 470.07)">Tamaño de la vivienda</text><path class="cls-1" d="M552,507H523V467"/><rect class="cls-14" x="539" y="490" width="169" height="31"/><text class="cls-15" transform="translate(564.16 510.07)">Calidad de la vivienda</text><rect class="cls-14" x="758" y="282" width="189" height="28"/><text class="cls-15" transform="translate(771.82 300.87)">Confianza Social Generalizada</text><rect class="cls-14" x="758" y="319" width="189" height="28"/><text class="cls-15" transform="translate(772.29 337.87)">Altruismo Social Generalizado</text><path class="cls-1" d="M765,472H736V432"/><path class="cls-1" d="M765,510H736V470"/><rect class="cls-12" x="726" y="418" width="221" height="28"/><text class="cls-20" transform="translate(773.94 437.4)">Comp. prosocial</text><path class="cls-1" d="M765,766H736V713"/><rect class="cls-14" x="758" y="742" width="189" height="43"/><text class="cls-15" transform="translate(766.27 760.07)">Asisto a reunión sobre temas de <tspan x="12.58" y="14.4">interés público/comunitario</tspan></text><path class="cls-1" d="M765,712H736V659"/><rect class="cls-14" x="758" y="688" width="189" height="43"/><text class="cls-15" transform="translate(804.03 706.07)">Ayudo a alguien a<tspan x="1.81" y="14.4">conseguir trabajo</tspan></text><rect class="cls-14" x="758" y="457" width="189" height="28"/><text class="cls-15" transform="translate(790.49 475.87)">Visito la casa de vecino</text><rect class="cls-14" x="758" y="494" width="189" height="28"/><text class="cls-15" transform="translate(787.16 512.87)">Amigos visitaron su casa</text><path class="cls-1" d="M765,548H736V508"/><rect class="cls-14" x="758" y="532" width="189" height="28"/><text class="cls-15" transform="translate(787.16 550.87)">Amigos visitaron su casa</text><path class="cls-1" d="M765,586H736V546"/><rect class="cls-14" x="758" y="570" width="189" height="28"/><text class="cls-15" transform="translate(797.17 588.87)">Hizo un voluntariado</text><path class="cls-1" d="M765,624H736V584"/><rect class="cls-14" x="758" y="608" width="189" height="28"/><text class="cls-15" transform="translate(792.27 626.87)">Donó dinero a caridad</text><path class="cls-1" d="M765,664H736V624"/><rect class="cls-14" x="758" y="648" width="189" height="28"/><text class="cls-15" transform="translate(796.26 666.87)">Prestó 10.000 o más.</text><rect class="cls-12" x="79" y="1010" width="234" height="28"/><text class="cls-13" transform="translate(101.97 1030.4)">Confianza Instituciones</text><path class="cls-1" d="M122,1416H93v-40"/><rect class="cls-14" x="116.44" y="1401" width="196.56" height="28"/><text class="cls-15" transform="translate(132.1 1419.87)">Satisfacción con la democracia</text><rect class="cls-12" x="79" y="1362" width="234" height="28"/><text class="cls-13" transform="translate(100.47 1382.4)">Actitud hacia la democ.</text></svg>